<svg width="279" height="200" viewBox="0 0 279 200" fill="none" xmlns="http://www.w3.org/2000/svg">
<path d="M91 88.5938L108.562 72.4375L111.75 75.875L94.5312 91.2812L111.75 106.688L108.562 110.125L88.0938 91.2812L91 88.5938ZM145.125 57.9062L150.406 59.8438L130.906 117.594L125.594 115.656L145.125 57.9062ZM165.469 110.125L162.281 106.688L179.5 91.2812L162.281 75.875L165.469 72.4375L185.938 91.2812L165.469 110.125Z" fill="#F4CFF1"/>
<g filter="url(#filter0_d)">
<path d="M6 5H273C273.552 5 274 5.44771 274 6V172.241C274 172.793 273.552 173.241 273 173.241H78.5772C77.5685 173.241 76.6273 173.747 76.0723 174.59L63.2326 194.071C62.8513 194.65 62.0112 194.675 61.5965 194.119L46.9011 174.445C46.3347 173.687 45.4439 173.241 44.4976 173.241H6C5.44772 173.241 5 172.793 5 172.241V6C5 5.44771 5.44771 5 6 5Z" stroke="#945BCC" stroke-width="2"/>
</g>
<defs>
<filter id="filter0_d" x="0" y="0" width="279" height="199.521" filterUnits="userSpaceOnUse" color-interpolation-filters="sRGB">
<feFlood flood-opacity="0" result="BackgroundImageFix"/>
<feColorMatrix in="SourceAlpha" type="matrix" values="0 0 0 0 0 0 0 0 0 0 0 0 0 0 0 0 0 0 127 0"/>
<feOffset/>
<feGaussianBlur stdDeviation="2"/>
<feColorMatrix type="matrix" values="0 0 0 0 0.705882 0 0 0 0 0.498039 0 0 0 0 0.913725 0 0 0 1 0"/>
<feBlend mode="normal" in2="BackgroundImageFix" result="effect1_dropShadow"/>
<feBlend mode="normal" in="SourceGraphic" in2="effect1_dropShadow" result="shape"/>
</filter>
</defs>
</svg>
